<?xml version="1.0" encoding="utf-8"?>
<!-- Generator: Adobe Illustrator 21.0.2, SVG Export Plug-In . SVG Version: 6.00 Build 0)  -->
<svg version="1.1" id="Layer_1" xmlns="http://www.w3.org/2000/svg" xmlns:xlink="http://www.w3.org/1999/xlink" x="0px" y="0px"
	 viewBox="0 0 100 100" style="enable-background:new 0 0 100 100;" xml:space="preserve">
<path d="M91,5H9C6.8,5,5,6.8,5,9v82c0,2.2,1.8,4,4,4h82c2.2,0,4-1.8,4-4V9C95,6.8,93.2,5,91,5z M91,9v8H9V9H91z M9,91V21h82v70H9z
	 M11.6,14.4C11.2,14,11,13.5,11,13c0-0.1,0-0.3,0-0.4c0-0.1,0.1-0.2,0.1-0.4c0-0.1,0.1-0.2,0.2-0.4c0.1-0.1,0.1-0.2,0.2-0.3
	c0.1-0.1,0.2-0.2,0.3-0.2c0.1-0.1,0.2-0.1,0.4-0.2c0.1-0.1,0.2-0.1,0.4-0.1c0.6-0.1,1.3,0.1,1.8,0.5c0.1,0.1,0.2,0.2,0.2,0.3
	c0.1,0.1,0.1,0.2,0.2,0.4c0.1,0.1,0.1,0.2,0.1,0.4c0,0.1,0,0.3,0,0.4c0,0.1,0,0.3,0,0.4c0,0.1-0.1,0.3-0.1,0.4
	c0,0.1-0.1,0.2-0.2,0.3c-0.1,0.1-0.1,0.2-0.2,0.3c-0.1,0.1-0.2,0.2-0.3,0.2c-0.1,0.1-0.2,0.1-0.3,0.2c-0.1,0.1-0.2,0.1-0.4,0.1
	c-0.1,0-0.3,0-0.4,0c-0.1,0-0.3,0-0.4,0c-0.1,0-0.2-0.1-0.4-0.1c-0.1,0-0.2-0.1-0.4-0.2C11.8,14.6,11.7,14.5,11.6,14.4z M17.6,14.4
	C17.2,14,17,13.5,17,13c0-0.1,0-0.3,0-0.4c0-0.1,0.1-0.2,0.1-0.4c0-0.1,0.1-0.2,0.2-0.3c0.1-0.1,0.1-0.2,0.2-0.3
	c0.1-0.1,0.2-0.2,0.3-0.2c0.1-0.1,0.2-0.1,0.3-0.2c0.1-0.1,0.2-0.1,0.4-0.1c0.6-0.1,1.3,0.1,1.8,0.5C20.8,12,21,12.5,21,13
	c0,0.1,0,0.3,0,0.4c0,0.1-0.1,0.2-0.1,0.4c0,0.1-0.1,0.2-0.2,0.4c-0.1,0.1-0.1,0.2-0.2,0.3C20,14.8,19.5,15,19,15
	C18.5,15,18,14.8,17.6,14.4z M23,13.4c0-0.1,0-0.3,0-0.4c0-0.1,0-0.3,0-0.4c0-0.1,0.1-0.2,0.1-0.4c0-0.1,0.1-0.2,0.2-0.4
	c0.1-0.1,0.1-0.2,0.2-0.3c0.1-0.1,0.2-0.2,0.3-0.2c0.1-0.1,0.2-0.1,0.4-0.2c0.1-0.1,0.2-0.1,0.4-0.1c0.3-0.1,0.5-0.1,0.8,0
	c0.1,0,0.3,0.1,0.4,0.1c0.1,0,0.2,0.1,0.3,0.2s0.2,0.1,0.3,0.2C26.8,12,27,12.5,27,13c0,0.5-0.2,1-0.6,1.4c-0.1,0.1-0.2,0.2-0.3,0.2
	c-0.1,0.1-0.2,0.1-0.3,0.2c-0.1,0.1-0.2,0.1-0.4,0.1c-0.1,0-0.3,0-0.4,0c-0.5,0-1-0.2-1.4-0.6c-0.1-0.1-0.2-0.2-0.2-0.3
	s-0.1-0.2-0.2-0.3C23.1,13.6,23.1,13.5,23,13.4z M33,13c0-1.1,0.9-2,2-2h48c1.1,0,2,0.9,2,2s-0.9,2-2,2H35C33.9,15,33,14.1,33,13z
	 M35.8,34.9l-4,8c-0.3,0.7-1,1.1-1.8,1.1s-1.5-0.4-1.8-1.1L26,38.5l-2.2,4.4c-0.3,0.7-1,1.1-1.8,1.1s-1.5-0.4-1.8-1.1l-4-8
	c-0.5-1-0.1-2.2,0.9-2.7c1-0.5,2.2-0.1,2.7,0.9l2.2,4.4l2.2-4.4c0.3-0.7,1-1.1,1.8-1.1s1.5,0.4,1.8,1.1l2.2,4.4l2.2-4.4
	c0.5-1,1.7-1.4,2.7-0.9C35.9,32.7,36.3,33.9,35.8,34.9z M42.2,42.9l-4-8c-0.5-1-0.1-2.2,0.9-2.7c1-0.5,2.2-0.1,2.7,0.9l2.2,4.4
	l2.2-4.4c0.3-0.7,1-1.1,1.8-1.1s1.5,0.4,1.8,1.1l2.2,4.4l2.2-4.4c0.5-1,1.7-1.4,2.7-0.9c1,0.5,1.4,1.7,0.9,2.7l-4,8
	c-0.3,0.7-1,1.1-1.8,1.1s-1.5-0.4-1.8-1.1L48,38.5l-2.2,4.4c-0.3,0.7-1,1.1-1.8,1.1S42.5,43.6,42.2,42.9z M60.2,34.9
	c-0.5-1-0.1-2.2,0.9-2.7c1-0.5,2.2-0.1,2.7,0.9l2.2,4.4l2.2-4.4c0.3-0.7,1-1.1,1.8-1.1s1.5,0.4,1.8,1.1l2.2,4.4l2.2-4.4
	c0.5-1,1.7-1.4,2.7-0.9c1,0.5,1.4,1.7,0.9,2.7l-4,8c-0.3,0.7-1,1.1-1.8,1.1s-1.5-0.4-1.8-1.1L70,38.5l-2.2,4.4
	c-0.3,0.7-1,1.1-1.8,1.1s-1.5-0.4-1.8-1.1L60.2,34.9z M31.5,53h-10c-1.1,0-2,0.9-2,2v10c0,1.1,0.9,2,2,2h10c1.1,0,2-0.9,2-2V55
	C33.5,53.9,32.6,53,31.5,53z M29.5,63h-6v-6h6V63z M31.5,71h-10c-1.1,0-2,0.9-2,2v10c0,1.1,0.9,2,2,2h10c1.1,0,2-0.9,2-2V73
	C33.5,71.9,32.6,71,31.5,71z M29.5,81h-6v-6h6V81z M80.5,60c0,1.1-0.9,2-2,2h-34c-1.1,0-2-0.9-2-2s0.9-2,2-2h34
	C79.6,58,80.5,58.9,80.5,60z M80.5,78c0,1.1-0.9,2-2,2h-34c-1.1,0-2-0.9-2-2s0.9-2,2-2h34C79.6,76,80.5,76.9,80.5,78z"/>
</svg>
